<!-- Copyright (c) 2024 Tobias Briones. All rights reserved. -->
<!-- SPDX-License-Identifier: CC-BY-4.0 -->
<!-- This file is part of https://github.com/texsydo -->

<svg version="1.2" xmlns="http://www.w3.org/2000/svg" viewBox="0 0 2400 2400" width="2400" height="2400"><style>.a{fill:#fefefe}.b{fill:#2196f3}.c{fill:#212121}.d{fill:#3e2723}.e{fill:#1a237e}</style><path class="a" d="m1200 2400c-663.6 0-1200-536.4-1200-1200 0-663.6 536.4-1200 1200-1200 663.6 0 1200 536.4 1200 1200 0 663.6-536.4 1200-1200 1200z"/><path fill-rule="evenodd" class="b" d="m1200 1200h-33.7l-40.6-74.3 74.3 74.3zm-301.9-301.9l-552.1 301.9v-841h13z"/><path class="c" d="m1200 1627c-236.1 0-427-190.9-427-427 0-236.1 190.9-427 427-427 236.1 0 427 190.9 427 427 0 236.1-190.9 427-427 427z"/><path fill-rule="evenodd" class="c" d="m1200 2400c-663.6 0-1200-536.4-1200-1200 0-663.6 536.4-1200 1200-1200 663.6 0 1200 536.4 1200 1200 0 663.6-536.4 1200-1200 1200zm854-1201c0-472.3-381.7-854-854-854-472.3 0-854 381.7-854 854 0 472.3 381.7 854 854 854 472.3 0 854-381.7 854-854z"/><path fill-rule="evenodd" class="b" d="m898.1 898.1l-552.1 301.9v-841h13z"/><path fill-rule="evenodd" class="b" d="m1200 2400c-298.3 0-571-108.4-780.7-288.1l335.8-183.5c129.5 79.1 281.8 124.6 444.9 124.6 472.3 0 854-381.7 854-854 0-184.6-58.4-355.4-157.6-495h396.9c68.6 151.1 106.7 319 106.7 496 0 663.6-536.4 1200-1200 1200zm-1200-1200c0-331.8 134.1-631.8 351.1-848.9l244.3 244.3c-154.2 154.4-249.4 367.7-249.4 603.6q0 0.3 0 0.7l-332.4 181.6c-9-59.1-13.6-119.7-13.6-181.3z"/><path fill-rule="evenodd" class="d" d="m1200 2400c-329.2 0-627-132-843.7-346h1419.7v-224c170.9-156.1 278-380.9 278-631 0-248.6-105.7-472-274.8-628h443.4c112.5 182.8 177.4 398.2 177.4 629 0 663.6-536.4 1200-1200 1200z"/><path fill-rule="evenodd" class="e" d="m1200 2400c-432.4 0-810.8-227.7-1022-570h2044c-211.2 342.3-589.6 570-1022 570z"/><path fill-rule="evenodd" class="e" d="m570.8 1829v393.4c-82-50.5-157.5-110.6-224.8-178.7v-214.7z"/><path fill-rule="evenodd" class="d" d="m2400 1200c0 230.8-64.9 446.2-177.4 629h-392.6v-1258h392.6c112.5 182.8 177.4 398.2 177.4 629z"/><path class="d" d="m2054 570v1260h-224v-1260z"/><path class="b" d="m772 965c-3.3 4.5 3.6 5.1 5 7 3.6 4.6 5.4 6.1 7 18.4 1.3 9.9 2.7 19.6 1.8 29.6-0.3 3.2-0.3 15.8 0.4 19.2 1.2 6-0.5 10-0.4 20 0.1 14-1.6 29.4-1.8 31-4.3 40.3-9.1 72.4-11 91.4-0.5 5.3 0.4 10.3 0 13.4-0.3 2.1-1.2 3.6-1 4 1.8 3.7 0.8-2.4 1-11.5 0.2-11.7 2.5-30.1 4.7-50.3 1.3-11.7 4-24 7-36.5 6.8-27.7 17-56.7 29.8-84.7 6.7-14.6 28.6-50.9 39.5-66.5 2-2.9 3.5-5.6 4.5-6.8 12.5-13.6 24.5-23.8 29.5-33.7 6.8-13.5 18.6-10.8 10-11"/></svg>