<!-- Copyright (c) 2024 Tobias Briones. All rights reserved. -->
<!-- SPDX-License-Identifier: CC-BY-4.0 -->
<!-- This file is part of https://github.com/texsydo -->

<svg version="1.2" xmlns="http://www.w3.org/2000/svg" viewBox="0 0 2400 2400" width="2400" height="2400"><style>.a{fill:#fefefe}.b{fill:#b0aeae}.c{fill:#9ac5db}.d{fill:#2196f3}.e{fill:#212121}.f{fill:#1a237e}.g{fill:#3e2723}</style><path class="a" d="m1200 2400c-663.6 0-1200-536.4-1200-1200 0-663.6 536.4-1200 1200-1200 663.6 0 1200 536.4 1200 1200 0 663.6-536.4 1200-1200 1200z"/><path fill-rule="evenodd" class="b" d="m678 1732h1152v-1064h-1152zm1376-1375.7v1687.4q-5.1 5.2-10.3 10.3h-1687.4q-5.2-5.1-10.3-10.3v-1687.4q5.6-5.7 11.3-11.3h1685.4q5.7 5.6 11.3 11.3z"/><path class="c" d="m1830 893v617h-1260v-617z"/><path class="d" d="m1829 892.8h-1259v-224.8h1259z"/><path class="d" d="m1829 1731.8h-1259v-224.8h1259z"/><path class="e" d="m1200 1413.5c-118.1 0-213.5-95.4-213.5-213.5 0-118.1 95.4-213.5 213.5-213.5 118.1 0 213.5 95.4 213.5 213.5 0 118.1-95.4 213.5-213.5 213.5z"/><path fill-rule="evenodd" class="e" d="m2054 356.3v1687.4c-67.3 68.1-142.8 128.2-224.8 178.7v-2044.8c82 50.5 157.5 110.6 224.8 178.7z"/><path fill-rule="evenodd" class="e" d="m570.8 177.6v2044.8c-82-50.5-157.5-110.6-224.8-178.7v-1687.4c67.3-68.1 142.8-128.2 224.8-178.7z"/><path fill-rule="evenodd" class="e" d="m2222.4 570.8h-2044.8c50.5-82.1 110.6-157.5 178.8-224.8h1687.2c68.2 67.3 128.3 142.7 178.8 224.8z"/><path fill-rule="evenodd" class="f" d="m2043.8 2053.9h-1687.6c-68.1-67.3-128.2-142.8-178.7-224.8h2045c-50.5 82-110.6 157.5-178.7 224.8z"/><path fill-rule="evenodd" class="f" d="m570.8 1829v393.4c-82-50.5-157.5-110.6-224.8-178.7v-214.7z"/><path fill-rule="evenodd" class="f" d="m2054 1829v214.7c-67.1 67.9-142.3 127.8-224 178.3v-393z"/><path class="g" d="m2054 570v1260h-224v-1260z"/></svg>